<svg width="206" height="82" viewBox="0 0 206 82" fill="none" xmlns="http://www.w3.org/2000/svg">
<path d="M0.124344 66.5179V54.5248L35.7767 3.49941H53.5484V53.2165H63.1429V66.5179H53.5484V82H38.2844V66.5179H0.124344ZM39.2656 19.8537L16.9147 53.2165H39.2656V19.8537ZM142.692 66.5179V54.5248L178.344 3.49941H196.116V53.2165H205.711V66.5179H196.116V82H180.852V66.5179H142.692ZM181.833 19.8537L159.482 53.2165H181.833V19.8537Z" fill="#29313D"/>
<path d="M72.8609 41.2233C72.8609 28.6487 75.1142 18.7998 79.6207 11.6766C84.1999 4.55335 91.7592 0.991751 102.299 0.991751C112.838 0.991751 120.361 4.55335 124.868 11.6766C129.447 18.7998 131.736 28.6487 131.736 41.2233C131.736 53.8706 129.447 63.7922 124.868 70.9881C120.361 78.184 112.838 81.7819 102.299 81.7819C91.7592 81.7819 84.1999 78.184 79.6207 70.9881C75.1142 63.7922 72.8609 53.8706 72.8609 41.2233ZM116.69 41.2233C116.69 35.8446 116.327 31.338 115.6 27.7038C114.946 23.9968 113.565 20.9803 111.457 18.6544C109.422 16.3284 106.369 15.1655 102.299 15.1655C98.2282 15.1655 95.1391 16.3284 93.0312 18.6544C90.996 20.9803 89.615 23.9968 88.8881 27.7038C88.2339 31.338 87.9068 35.8446 87.9068 41.2233C87.9068 46.7474 88.2339 51.3993 88.8881 55.179C89.5423 58.8859 90.9233 61.9024 93.0312 64.2283C95.1391 66.4816 98.2282 67.6082 102.299 67.6082C106.369 67.6082 109.458 66.4816 111.566 64.2283C113.674 61.9024 115.055 58.8859 115.709 55.179C116.363 51.3993 116.69 46.7474 116.69 41.2233Z" fill="#85D49C"/>
</svg>
