<svg width="20" height="24" viewBox="0 0 20 24" fill="none" xmlns="http://www.w3.org/2000/svg">
<path d="M10.1578 1.0005C9.96953 1.00395 9.78445 1.0822 9.66092 1.21055L1.54231 9.76594C1.37232 9.94253 1.33003 10.211 1.43874 10.4234C1.54745 10.6358 1.80123 10.7806 2.0603 10.7781H6.1196V22.3889C6.11964 22.7089 6.44006 23 6.79429 23H13.5617C13.9159 23 14.2382 22.7089 14.2382 22.3889V10.7781H18.2975C18.5566 10.7805 18.8104 10.6358 18.9191 10.4234C19.0278 10.211 18.9855 9.94253 18.8155 9.76594L10.6969 1.21055C10.5642 1.07244 10.36 0.992903 10.1578 1.0005Z" stroke="#747474" stroke-width="1.7"/>
</svg>