<svg width="19" height="24" viewBox="0 0 19 24" fill="none" xmlns="http://www.w3.org/2000/svg">
<path d="M9.65777 1.0005C9.46953 1.00395 9.28445 1.0822 9.16092 1.21055L1.04231 9.76594C0.872315 9.94253 0.830031 10.211 0.938738 10.4234C1.04745 10.6358 1.30123 10.7806 1.5603 10.7781H5.6196V22.3889C5.61964 22.7089 5.94006 23 6.29429 23H13.0617C13.4159 23 13.7382 22.7089 13.7382 22.3889V10.7781H17.7975C18.0566 10.7805 18.3104 10.6358 18.4191 10.4234C18.5278 10.211 18.4855 9.94253 18.3155 9.76594L10.1969 1.21055C10.0642 1.07244 9.86004 0.992903 9.65777 1.0005Z" stroke="#29313D"/>
</svg>