<svg width="446" height="446" viewBox="0 0 446 446" fill="none" xmlns="http://www.w3.org/2000/svg">
<g filter="url(#filter0_d)">
<rect x="23" y="23" width="187.165" height="187.165" rx="12.8342" fill="white"/>
<path fill-rule="evenodd" clip-rule="evenodd" d="M103.382 161.02L85.811 148.469C81.0014 145.034 78.5966 143.316 77.2983 140.793C76 138.27 76 135.315 76 129.405V106.661C76 104.779 76 103.196 76.0419 101.832L111.143 126.904V166.245C109.053 165.071 106.615 163.329 103.382 161.02ZM122.857 166.245C124.947 165.071 127.385 163.329 130.618 161.02L148.189 148.469C152.999 145.034 155.403 143.316 156.702 140.793C158 138.27 158 135.315 158 129.405V106.661C158 104.779 158 103.196 157.958 101.832L122.857 126.904V166.245ZM152.89 91.0564L117 116.692L81.11 91.0564C82.3475 90.0703 83.8868 88.9708 85.811 87.5964L103.382 75.0454C109.958 70.3485 113.246 68 117 68C120.754 68 124.042 70.3485 130.618 75.0454L148.189 87.5964C150.113 88.9708 151.652 90.0703 152.89 91.0564Z" fill="#4678F9"/>
<rect x="235.836" y="23" width="187.165" height="187.165" rx="12.8342" fill="white"/>
<rect x="235.836" y="23" width="187.165" height="187.165" rx="12.8342" fill="white"/>
<path d="M348.245 79.9773L294.346 133.876C293.898 134.324 293.675 134.547 293.528 134.822C293.381 135.097 293.319 135.407 293.194 136.028L289.155 156.226C289.085 156.576 289.05 156.751 289.149 156.851C289.249 156.95 289.424 156.915 289.774 156.845L309.972 152.806C310.593 152.681 310.903 152.619 311.178 152.472C311.453 152.325 311.676 152.102 312.124 151.654L312.124 151.654L366.023 97.7551C367.426 96.3516 368.128 95.6498 368.128 94.7778C368.128 93.9058 367.426 93.204 366.023 91.8005L354.2 79.9773C352.796 78.5738 352.094 77.872 351.222 77.872C350.35 77.872 349.648 78.5738 348.245 79.9773Z" fill="#4678F9"/>
<rect x="235.836" y="235.836" width="187.165" height="187.165" rx="12.8342" fill="white"/>
<rect x="23" y="235.836" width="187.165" height="187.165" rx="12.8342" fill="white"/>
<path fill-rule="evenodd" clip-rule="evenodd" d="M153 304.36V302C153 292.059 136.882 284 117 284C97.1177 284 81 292.059 81 302V304.36C82.0334 308.401 85.699 312.141 91.41 314.996C98.2124 318.397 107.417 320.3 117 320.3C126.583 320.3 135.788 318.397 142.59 314.996C148.301 312.141 151.967 308.401 153 304.36ZM153 318.287C150.93 319.95 148.65 321.358 146.347 322.509C138.11 326.628 127.55 328.7 117 328.7C106.45 328.7 95.8899 326.628 87.6534 322.509C85.3503 321.358 83.0703 319.95 81 318.287V331.36C82.0334 335.401 85.699 339.141 91.41 341.996C98.2124 345.397 107.417 347.3 117 347.3C126.583 347.3 135.788 345.397 142.59 341.996C148.301 339.141 151.967 335.401 153 331.36V318.287ZM153 345.287C150.93 346.95 148.65 348.358 146.347 349.509C138.11 353.628 127.55 355.7 117 355.7C106.45 355.7 95.8899 353.628 87.6534 349.509C85.3503 348.358 83.0703 346.95 81 345.287V356C81 365.941 97.1177 374 117 374C136.882 374 153 365.941 153 356V345.287Z" fill="#4678F9"/>
</g>
<path d="M298.549 348.726C297.803 348.726 297.088 348.428 296.562 347.898L281.953 333.179C280.871 332.089 280.869 330.331 281.949 329.239L296.561 314.45C297.087 313.918 297.805 313.618 298.553 313.618H304.773C307.263 313.618 308.514 316.624 306.76 318.391L295.997 329.234C294.911 330.328 294.913 332.093 296.001 333.184L306.735 343.949C308.495 345.714 307.244 348.726 304.752 348.726H298.549Z" fill="#4678F9"/>
<path d="M341.832 285C343.648 285 344.984 286.702 344.552 288.466L324.314 371.066C324.007 372.319 322.884 373.2 321.595 373.2H316.515C314.699 373.2 313.364 371.498 313.796 369.734L334.034 287.134C334.34 285.881 335.463 285 336.753 285H341.832Z" fill="#4678F9"/>
<path d="M351.214 318.386C349.466 316.617 350.719 313.618 353.205 313.618H359.371C360.117 313.618 360.832 313.916 361.358 314.446L376.038 329.234C377.123 330.328 377.121 332.093 376.033 333.184L361.357 347.903C360.832 348.43 360.119 348.726 359.375 348.726H353.226C350.737 348.726 349.485 345.721 351.239 343.954L361.933 333.179C363.014 332.089 363.016 330.331 361.937 329.239L351.214 318.386Z" fill="#4678F9"/>
<defs>
<filter id="filter0_d" x="0.211205" y="0.211205" width="445.578" height="445.58" filterUnits="userSpaceOnUse" color-interpolation-filters="sRGB">
<feFlood flood-opacity="0" result="BackgroundImageFix"/>
<feColorMatrix in="SourceAlpha" type="matrix" values="0 0 0 0 0 0 0 0 0 0 0 0 0 0 0 0 0 0 127 0" result="hardAlpha"/>
<feOffset/>
<feGaussianBlur stdDeviation="11.3944"/>
<feComposite in2="hardAlpha" operator="out"/>
<feColorMatrix type="matrix" values="0 0 0 0 0 0 0 0 0 0 0 0 0 0 0 0 0 0 0.25 0"/>
<feBlend mode="normal" in2="BackgroundImageFix" result="effect1_dropShadow"/>
<feBlend mode="normal" in="SourceGraphic" in2="effect1_dropShadow" result="shape"/>
</filter>
</defs>
</svg>
