                <svg width="21" height="22" viewBox="0 0 21 22" fill="none" xmlns="http://www.w3.org/2000/svg">
                <path d="M17.0663 15.5502C16.227 15.5502 15.476 15.8815 14.9017 16.4006L7.02713 11.8173C7.08235 11.5633 7.12653 11.3092 7.12653 11.0442C7.12653 10.7791 7.08235 10.5251 7.02713 10.2711L14.8133 5.73191C15.4097 6.28412 16.1938 6.62649 17.0663 6.62649C18.8997 6.62649 20.3796 5.14657 20.3796 3.31323C20.3796 1.47989 18.8997 -3.91006e-05 17.0663 -3.91006e-05C15.233 -3.91006e-05 13.7531 1.47989 13.7531 3.31323C13.7531 3.57829 13.7972 3.8323 13.8525 4.08632L6.06629 8.62549C5.4699 8.07328 4.68576 7.73091 3.81326 7.73091C1.97993 7.73091 0.5 9.21084 0.5 11.0442C0.5 12.8775 1.97993 14.3574 3.81326 14.3574C4.68576 14.3574 5.4699 14.0151 6.06629 13.4629L13.9298 18.0573C13.8745 18.2892 13.8414 18.5322 13.8414 18.7751C13.8414 20.5532 15.2882 22 17.0663 22C18.8444 22 20.2912 20.5532 20.2912 18.7751C20.2912 16.997 18.8444 15.5502 17.0663 15.5502Z" fill="#747474"/>
                </svg>