<svg width="20" height="22" viewBox="0 0 20 22" fill="none" xmlns="http://www.w3.org/2000/svg">
<path d="M16.5663 15.5502C15.727 15.5502 14.976 15.8815 14.4017 16.4006L6.52713 11.8173C6.58235 11.5632 6.62653 11.3092 6.62653 11.0442C6.62653 10.7791 6.58235 10.5251 6.52713 10.2711L14.3133 5.73189C14.9097 6.2841 15.6938 6.62647 16.5663 6.62647C18.3997 6.62647 19.8796 5.14654 19.8796 3.3132C19.8796 1.47986 18.3997 -6.10352e-05 16.5663 -6.10352e-05C14.733 -6.10352e-05 13.2531 1.47986 13.2531 3.3132C13.2531 3.57826 13.2972 3.83228 13.3525 4.0863L5.56629 8.62547C4.9699 8.07326 4.18576 7.73089 3.31326 7.73089C1.47993 7.73089 0 9.21082 0 11.0442C0 12.8775 1.47993 14.3574 3.31326 14.3574C4.18576 14.3574 4.9699 14.015 5.56629 13.4628L13.4298 18.0572C13.3745 18.2892 13.3414 18.5321 13.3414 18.7751C13.3414 20.5532 14.7882 22 16.5663 22C18.3444 22 19.7912 20.5532 19.7912 18.7751C19.7912 16.997 18.3444 15.5502 16.5663 15.5502Z" fill="#29313D"/>
</svg>