<svg width="19" height="22" viewBox="0 0 19 22" fill="none" xmlns="http://www.w3.org/2000/svg">
<path d="M9.65777 0.000499026C9.46953 0.0039518 9.28445 0.0822043 9.16092 0.21055L1.04231 8.76594C0.872315 8.94253 0.830031 9.21098 0.938738 9.42339C1.04745 9.63581 1.30123 9.78063 1.5603 9.77807H5.6196V21.3889C5.61964 21.7089 5.94006 22 6.29429 22H13.0617C13.4159 22 13.7382 21.7089 13.7382 21.3889V9.77807H17.7975C18.0566 9.78052 18.3104 9.63581 18.4191 9.42339C18.5278 9.21097 18.4855 8.94253 18.3155 8.76594L10.1969 0.21055C10.0642 0.0724448 9.86004 -0.00709709 9.65777 0.000499026Z" fill="#29313D"/>
</svg>
