<svg width="100" height="91" viewBox="0 0 100 91" fill="none" xmlns="http://www.w3.org/2000/svg">
<path d="M18.5776 65.7491C18.0407 65.7491 17.5264 65.5333 17.1503 65.1501L1.37216 49.0761C0.609764 48.2994 0.608378 47.0556 1.36904 46.2772L17.1498 30.1288C17.5261 29.7437 18.0418 29.5266 18.5802 29.5266H27.3743C29.1472 29.5266 30.0435 31.6625 28.8015 32.9277L15.6993 46.274C14.9344 47.0532 14.9358 48.3019 15.7024 49.0793L28.7834 62.3448C30.0298 63.6088 29.1344 65.7491 27.3594 65.7491H18.5776Z" fill="white"/>
<path d="M64.1932 0C65.4884 0 66.442 1.21226 66.137 2.471L45.0555 89.471C44.8381 90.3682 44.0349 91 43.1118 91H36.1615C34.8663 91 33.9127 89.7878 34.2177 88.529L55.2992 1.529C55.5166 0.631823 56.3198 0 57.243 0H64.1932Z" fill="white"/>
<path d="M71.1801 32.9244C69.9425 31.658 70.8398 29.5266 72.6105 29.5266H81.3412C81.878 29.5266 82.3923 29.7424 82.7684 30.1255L98.6215 46.274C99.3864 47.0532 99.385 48.3019 98.6183 49.0793L82.7679 65.1534C82.392 65.5345 81.8791 65.7491 81.3438 65.7491H72.6253C70.8525 65.7491 69.9561 63.6133 71.198 62.3481L84.2257 49.0761C84.9881 48.2994 84.9895 47.0556 84.2288 46.2772L71.1801 32.9244Z" fill="white"/>
</svg>
