<svg width="20" height="21" viewBox="0 0 20 21" fill="none" xmlns="http://www.w3.org/2000/svg">
<path d="M9 9.55H9.05V9.5V5.55H10.95V9.5V9.55H11H14.95V11.45H11H10.95V11.5V15.45H9.05V11.5V11.45H9H5.05V9.55H9ZM0.05 10.5C0.05 5.01661 4.51661 0.55 10 0.55C15.4834 0.55 19.95 5.01661 19.95 10.5C19.95 15.9834 15.4834 20.45 10 20.45C4.51661 20.45 0.05 15.9834 0.05 10.5ZM18.05 10.5C18.05 6.04226 14.4577 2.45 10 2.45C5.54226 2.45 1.95 6.04226 1.95 10.5C1.95 14.9577 5.54226 18.55 10 18.55C14.4577 18.55 18.05 14.9577 18.05 10.5Z" fill="white" stroke="#6891FA" stroke-width="0.1"/>
</svg>
